<svg xmlns="http://www.w3.org/2000/svg" width="1393.122" height="159.366"><path fill="#ffffff" d="M21.389 18.758v27.555H74.69v18.671H21.39v26.651h60.078v18.672H.31V.087h81.158v18.67H21.39z"/><path fill="#FF5959" d="M196.238 156.527H.308V137.85h195.93v18.677z"/><path fill="#ffffff" d="M193.984 110.307l-72.43-65.5v65.5h-21.08V.087h2.258l72.425 66.704V.087h21.081v110.22h-2.254zM300.14 64.978h-31.468v91.55h-21.08v-91.55H215.97v-18.67h84.17v18.67zM363.407 158.484c-7.128 0-13.603-1.105-19.423-3.312-5.823-2.207-10.793-5.32-14.907-9.335-4.117-4.014-7.303-8.885-9.562-14.606-2.258-5.722-3.388-12.095-3.388-19.123v-65.8h21.08v65.8c0 5.522.905 10.089 2.71 13.702 1.807 3.614 4.04 6.475 6.701 8.583 2.66 2.108 5.52 3.564 8.584 4.367 3.06.804 5.796 1.204 8.205 1.204 2.41 0 5.144-.4 8.207-1.204 3.061-.803 5.922-2.259 8.583-4.367 2.658-2.108 4.893-4.97 6.7-8.583 1.807-3.613 2.71-8.18 2.71-13.702v-65.8h21.08v65.8c0 7.028-1.105 13.4-3.312 19.123-2.21 5.721-5.372 10.592-9.486 14.606-4.117 4.015-9.087 7.128-14.906 9.335-5.824 2.207-12.348 3.312-19.576 3.312zM451.5 121.443v35.084h-21.08V46.307h50.075c5.633 0 10.785.93 15.462 2.786 4.676 1.859 8.673 4.468 11.99 7.83 3.317 3.364 5.907 7.378 7.769 12.046 1.858 4.668 2.79 9.763 2.79 15.283 0 4.117-.554 8.108-1.66 11.97-1.105 3.866-2.638 7.355-4.601 10.465a31.693 31.693 0 01-7.239 8.056c-2.866 2.259-6.009 3.84-9.428 4.743l27.444 37.041h-25.144l-25.516-35.084H451.5zm0-18.369h24.015c4.4 0 8.027-.55 10.878-1.657 2.852-1.103 5.104-2.56 6.755-4.366 1.652-1.807 2.777-3.84 3.377-6.099.6-2.258.9-4.54.9-6.85 0-2.71-.426-5.219-1.274-7.53a16.099 16.099 0 00-3.905-6.022c-1.75-1.706-4-3.061-6.753-4.066-2.754-1.002-6.078-1.506-9.978-1.506H451.5v38.096z"/><g fill="#FF5959"><path d="M634.105 157.022H618.66v-96.88h-35.413V46.57h86.271v13.572h-35.413v96.88zM689.015 44.074c5.616 0 9.828 4.368 9.828 9.828 0 5.46-4.212 9.516-9.828 9.516-5.46 0-9.517-4.055-9.517-9.516 0-5.46 4.057-9.828 9.517-9.828zm-7.333 39.002h14.665v73.946h-14.665V83.076zM736.75 157.022h-14.665V39.082h14.665v117.94zM776.84 145.322v11.7h-14.196V39.082h14.664v55.07h.47c4.991-7.177 14.196-13.105 26.363-13.105 21.998 0 36.974 17.005 36.974 38.845 0 21.686-14.509 39.158-37.285 39.158-10.452 0-20.905-4.836-26.677-13.728h-.312zm24.494-52.107c-14.977 0-24.961 12.637-24.961 26.833 0 14.198 9.984 26.678 24.96 26.678 16.07 0 24.65-12.95 24.65-26.834s-8.58-26.677-24.65-26.677zM861.546 83.076h14.665v40.405c0 12.013 4.524 23.245 18.877 23.245 14.196 0 20.748-12.48 20.748-26.209V83.076H930.5v73.946h-14.196v-11.544h-.624c-3.745 6.396-12.95 13.572-24.65 13.572-21.528 0-29.485-16.224-29.485-35.414v-40.56zM988.061 159.05c-22.776 0-37.285-17.472-37.285-39.158 0-21.84 14.977-38.845 37.13-38.845 12.012 0 21.216 5.928 26.364 13.105h.313v-55.07h14.664v117.94h-14.196v-11.7h-.313c-5.616 8.892-16.224 13.728-26.677 13.728zm2.496-12.324c14.977 0 24.961-12.48 24.961-26.678 0-14.196-9.984-26.833-24.96-26.833-16.069 0-24.494 12.793-24.494 26.677 0 13.885 8.425 26.834 24.493 26.834zM1102.877 103.044c-4.68-5.148-14.977-9.672-23.557-9.672-7.644 0-16.224 2.807-16.224 9.204 0 6.552 9.204 8.425 20.436 10.14 17.629 2.653 32.138 7.332 32.138 22.778 0 15.288-14.353 23.556-32.138 23.556-19.969 0-32.604-10.608-36.817-14.665l10.92-9.36c8.27 7.8 17.63 11.701 26.521 11.701 9.049 0 17.005-3.121 17.005-10.14 0-7.333-8.424-9.517-20.28-11.39-16.381-2.495-32.45-6.083-32.45-21.216 0-14.353 12.949-22.933 30.733-22.933 12.793 0 26.365 4.525 33.853 12.949l-10.14 9.048zM1162.155 119.424l-12.48 12.013v25.585h-14.664V39.082h14.664v76.13h.468l31.045-32.136h19.657l-28.081 27.144 31.045 46.802h-18.72l-22.934-37.598zM1243.43 111.468c6.71 0 13.73 1.092 18.566 2.029v-3.59c0-10.92-4.992-16.847-18.72-16.847-9.361 0-16.538 3.744-21.374 9.048l-8.736-9.828c7.488-7.177 15.757-11.233 30.577-11.233 21.84 0 32.293 8.113 32.293 31.202v44.773h-13.885v-9.828h-.468c-4.68 7.643-13.884 11.7-24.18 11.7-14.353 0-26.99-7.176-26.99-22.933 0-13.417 8.27-24.493 32.918-24.493zm18.566 12.793c-5.929-1.248-12.793-2.184-19.033-2.184-12.324 0-17.473 5.46-17.473 13.572s6.084 11.7 14.977 11.7c10.764 0 21.529-6.24 21.529-18.252v-4.836zM1302.084 83.076h13.884v12.48h.468c4.056-8.58 12.637-14.509 22.621-14.509 2.028 0 4.056.156 5.772.624l-.624 13.573c-1.872-.468-4.368-.78-6.708-.78-14.041 0-20.75 11.388-20.75 23.712v38.846h-14.663V83.076zM1392.878 157.022h-8.269c-17.316 0-25.897-4.056-25.897-24.96V95.086H1346.7V83.076h12.012V62.95h14.509v20.125h19.344v12.011h-19.344v34.478c0 14.82 6.864 15.288 14.352 15.288h5.305v12.169z"/></g><text transform="translate(327.95 188.758)" font-family="'MyriadPro-Regular'" font-size="12"></text></svg>
