<svg xmlns="http://www.w3.org/2000/svg" width="1270.122" height="160.366">
    <path fill="#FFFFFF" d="M21.96 19.335v27.556h53.302v18.67H21.96v26.652h60.079v18.671H.879V.664h81.159v18.671H21.959z"/>
    <path fill="#FF5959" d="M196.809 157.105H.879v-18.677h195.93v18.677z"/>
    <path fill="#FFFFFF" d="M194.555 110.884l-72.431-65.5v65.5h-21.08V.664h2.259l72.425 66.704V.664h21.08v110.22h-2.253zM300.71 65.556h-31.468v91.549h-21.08v-91.55h-31.621v-18.67h84.17v18.67zM363.978 159.062c-7.129 0-13.604-1.106-19.423-3.312-5.824-2.207-10.793-5.32-14.908-9.336-4.117-4.014-7.303-8.884-9.561-14.606-2.258-5.722-3.388-12.095-3.388-19.123v-65.8h21.08v65.8c0 5.522.904 10.089 2.71 13.702 1.807 3.614 4.04 6.475 6.7 8.583 2.66 2.108 5.52 3.565 8.584 4.367 3.06.805 5.797 1.205 8.206 1.205s5.144-.4 8.207-1.205c3.06-.802 5.921-2.259 8.582-4.367 2.659-2.108 4.894-4.969 6.7-8.583 1.808-3.613 2.71-8.18 2.71-13.702v-65.8h21.081v65.8c0 7.028-1.105 13.401-3.312 19.123-2.21 5.722-5.372 10.592-9.487 14.606-4.117 4.016-9.086 7.129-14.906 9.336-5.823 2.206-12.347 3.312-19.575 3.312zM452.07 122.02v35.085h-21.08V46.885h50.076c5.632 0 10.785.929 15.462 2.786 4.675 1.858 8.672 4.468 11.99 7.83 3.317 3.364 5.907 7.378 7.768 12.045 1.859 4.668 2.79 9.764 2.79 15.283 0 4.117-.553 8.108-1.659 11.97-1.105 3.866-2.639 7.355-4.602 10.466a31.692 31.692 0 01-7.238 8.055c-2.866 2.26-6.01 3.84-9.428 4.743l27.444 37.042h-25.145l-25.516-35.084h-20.861zm0-18.369h24.016c4.4 0 8.026-.55 10.878-1.656 2.852-1.104 5.104-2.56 6.755-4.367 1.652-1.807 2.777-3.84 3.376-6.098s.9-4.54.9-6.851c0-2.71-.425-5.218-1.274-7.53a16.099 16.099 0 00-3.904-6.022c-1.75-1.706-4.001-3.06-6.753-4.065-2.754-1.003-6.078-1.506-9.978-1.506H452.07v38.095z"/>
    <path fill="#FF5959" d="M595.986 47.147h42.746c16.692 0 34.633 6.865 34.633 27.925 0 12.17-7.8 20.906-19.345 24.026v.311c14.197 1.716 24.493 11.389 24.493 26.833 0 21.217-18.408 31.358-41.497 31.358h-41.03V47.147zm15.445 46.646h24.805c11.856 0 21.685-5.148 21.685-17.16 0-11.857-9.517-16.537-24.181-16.537H611.43v33.697zm0 50.702h24.025c13.104 0 27.457-4.056 27.457-19.032 0-12.95-9.204-18.566-26.053-18.566h-25.429v37.598zM707.526 44.651c5.616 0 9.828 4.369 9.828 9.828s-4.212 9.517-9.828 9.517c-5.46 0-9.517-4.057-9.517-9.517s4.057-9.828 9.517-9.828zm-7.332 39.001h14.664V157.6h-14.664V83.652zM755.262 157.6h-14.665V39.66h14.665V157.6zM795.82 157.6h-14.663V39.66h14.664V157.6zM830.92 124.838c1.716 14.509 11.388 22.465 25.273 22.465 12.013 0 19.969-7.02 23.713-11.544l9.36 7.8c-5.928 8.268-18.877 16.069-34.789 16.069-21.373 0-37.754-15.29-37.754-36.974 0-22.465 16.225-41.029 38.846-41.029 22.933 0 34.633 18.877 34.633 35.413 0 2.808-.155 5.304-.312 7.8h-58.97zm.156-10.608h45.71c0-11.232-9.828-20.437-21.997-20.437-12.637 0-21.685 8.425-23.713 20.437zM946.828 157.6h-8.269c-17.316 0-25.897-4.057-25.897-24.961V95.665H900.65V83.652h12.012V63.528h14.509v20.124h19.344v12.013h-19.344v34.478c0 14.82 6.864 15.289 14.352 15.289h5.305V157.6zM995.811 157.6h-8.268c-17.317 0-25.898-4.057-25.898-24.961V95.665h-12.012V83.652h12.012V63.528h14.509v20.124h19.345v12.013h-19.345v34.478c0 14.82 6.864 15.289 14.352 15.289h5.305V157.6zM1038.398 120.002l-12.48 12.013V157.6h-14.665V39.66h14.665v76.13h.467l31.045-32.138h19.658l-28.082 27.146 31.045 46.802h-18.72l-22.933-37.598zM1119.673 112.046c6.708 0 13.729 1.092 18.565 2.028v-3.588c0-10.92-4.992-16.85-18.72-16.85-9.361 0-16.538 3.745-21.374 9.05l-8.736-9.829c7.488-7.176 15.757-11.232 30.577-11.232 21.84 0 32.293 8.112 32.293 31.201V157.6h-13.884v-9.829h-.469c-4.68 7.645-13.883 11.7-24.18 11.7-14.353 0-26.99-7.176-26.99-22.932 0-13.417 8.269-24.493 32.918-24.493zm18.565 12.792c-5.929-1.248-12.793-2.184-19.033-2.184-12.325 0-17.473 5.46-17.473 13.573s6.085 11.7 14.977 11.7c10.764 0 21.529-6.24 21.529-18.252v-4.837zM1178.326 83.652h13.885v12.48h.467c4.057-8.58 12.637-14.507 22.621-14.507 2.029 0 4.056.156 5.773.624l-.624 13.572c-1.872-.468-4.368-.78-6.71-.78-14.04 0-20.747 11.389-20.747 23.713V157.6h-14.665V83.652zM1269.12 157.6h-8.268c-17.316 0-25.897-4.057-25.897-24.961V95.665h-12.012V83.652h12.012V63.528h14.509v20.124h19.344v12.013h-19.344v34.478c0 14.82 6.864 15.289 14.352 15.289h5.305V157.6z"/>
</svg>
